<svg height="187.522892" viewBox="0 0 24.11365 8.5220152" width="533.268225" xmlns="http://www.w3.org/2000/svg"><g fill-rule="evenodd" stroke-width=".264583" transform="translate(-11.264164 -335.459025)"><path d="m15.250167 336.38089-1.648089.60007-2.153179 4.61804a.56779583.56779583 0 0 0 .273843.75221l1.812396.84534v-5.07867l1.715294-1.73699" fill="#ff6619"/><path d="m17.45494 335.75647a.56806041.56806041 0 0 0 -.800893 0l-2.430463 2.43046v5.09588c0 .31115.254794.56594.566208.56594h4.529138c.311414 0 .566208-.25479.566208-.56621v-5.09561zm-.400314 1.08744a.35533541.35533541 0 1 1 -.000794-.71041.35533563.35533563 0 0 1 .000794.71067z" fill="#ff6619"/><path d="m16.513024 341.97444v-3.7883h-1.082146v4.87071h3.246966v-1.08214h-2.164556" fill="#fff"/><path d="m32.674832 338.05491c-1.419754 0-2.570692 1.15093-2.570692 2.57095 0 1.41976 1.150938 2.57069 2.570692 2.57069s2.570691-1.15093 2.570691-2.57069c0-1.42002-1.150937-2.57095-2.570691-2.57095zm0 4.11321a1.5425208 1.5425208 0 1 1 0-3.08478 1.5425208 1.5425208 0 0 1 0 3.08504zm-12.071615-3.99071h1.082146v4.87098h-1.081881zm7.821084 0h1.082145v4.87256h-1.082145zm-1.839648 0v2.89533l-4.143904-3.01783v4.99506h1.08241v-2.87073l4.143904 3.01758v-5.01915h-1.08241" fill="#666"/></g></svg>